<mxfile host="app.diagrams.net" modified="2021-05-26T11:53:17.793Z" agent="5.0 (Windows NT 6.1; Win64; x64) AppleWebKit/537.36 (KHTML, like Gecko) Chrome/90.0.4430.212 Safari/537.36" etag="1ATjjksABJiTwADRvmXB" version="14.7.1" type="github">
  <diagram id="C5RBs43oDa-KdzZeNtuy" name="Page-1">
    <mxGraphModel dx="981" dy="526" grid="1" gridSize="10" guides="1" tooltips="1" connect="1" arrows="1" fold="1" page="1" pageScale="1" pageWidth="827" pageHeight="1169" background="#F4F1DE" math="0" shadow="0">
      <root>
        <mxCell id="WIyWlLk6GJQsqaUBKTNV-0" />
        <mxCell id="WIyWlLk6GJQsqaUBKTNV-1" parent="WIyWlLk6GJQsqaUBKTNV-0" />
        <mxCell id="hLxBVsBiHpTNH3ujVvt1-59" value="" style="edgeStyle=none;orthogonalLoop=1;jettySize=auto;html=1;fontSize=11;verticalAlign=top;curved=1;labelBackgroundColor=#F4F1DE;strokeColor=#E07A5F;fontColor=#393C56;" edge="1" parent="WIyWlLk6GJQsqaUBKTNV-1" source="hLxBVsBiHpTNH3ujVvt1-16" target="hLxBVsBiHpTNH3ujVvt1-58">
          <mxGeometry relative="1" as="geometry" />
        </mxCell>
        <mxCell id="hLxBVsBiHpTNH3ujVvt1-80" value="" style="edgeStyle=orthogonalEdgeStyle;rounded=0;sketch=0;orthogonalLoop=1;jettySize=auto;html=1;fontColor=#393C56;strokeColor=#E07A5F;fillColor=#F2CC8F;startArrow=none;" edge="1" parent="WIyWlLk6GJQsqaUBKTNV-1" source="hLxBVsBiHpTNH3ujVvt1-95" target="hLxBVsBiHpTNH3ujVvt1-12">
          <mxGeometry relative="1" as="geometry">
            <mxPoint x="180" y="280" as="targetPoint" />
            <Array as="points">
              <mxPoint x="110" y="290" />
            </Array>
          </mxGeometry>
        </mxCell>
        <mxCell id="hLxBVsBiHpTNH3ujVvt1-16" value="&lt;font style=&quot;font-size: 11px&quot;&gt;단어가 올바른가?&lt;/font&gt;" style="html=1;whiteSpace=wrap;aspect=fixed;shape=isoRectangle;fontSize=11;fillColor=#F2CC8F;strokeColor=#E07A5F;fontColor=#393C56;" vertex="1" parent="WIyWlLk6GJQsqaUBKTNV-1">
          <mxGeometry x="190" y="338.5" width="140" height="84" as="geometry" />
        </mxCell>
        <mxCell id="hLxBVsBiHpTNH3ujVvt1-4" value="" style="edgeStyle=orthogonalEdgeStyle;orthogonalLoop=1;jettySize=auto;html=1;curved=1;labelBackgroundColor=#F4F1DE;strokeColor=#E07A5F;fontColor=#393C56;" edge="1" parent="WIyWlLk6GJQsqaUBKTNV-1" source="hLxBVsBiHpTNH3ujVvt1-2" target="hLxBVsBiHpTNH3ujVvt1-3">
          <mxGeometry relative="1" as="geometry" />
        </mxCell>
        <mxCell id="hLxBVsBiHpTNH3ujVvt1-2" value="&lt;font style=&quot;font-size: 11px&quot;&gt;시작&lt;/font&gt;" style="ellipse;shape=doubleEllipse;whiteSpace=wrap;html=1;fillColor=#F2CC8F;strokeColor=#E07A5F;fontColor=#393C56;" vertex="1" parent="WIyWlLk6GJQsqaUBKTNV-1">
          <mxGeometry x="100" y="20" width="60" height="50" as="geometry" />
        </mxCell>
        <mxCell id="hLxBVsBiHpTNH3ujVvt1-9" value="" style="edgeStyle=orthogonalEdgeStyle;orthogonalLoop=1;jettySize=auto;html=1;curved=1;labelBackgroundColor=#F4F1DE;strokeColor=#E07A5F;fontColor=#393C56;" edge="1" parent="WIyWlLk6GJQsqaUBKTNV-1" source="hLxBVsBiHpTNH3ujVvt1-3" target="hLxBVsBiHpTNH3ujVvt1-7">
          <mxGeometry relative="1" as="geometry" />
        </mxCell>
        <mxCell id="hLxBVsBiHpTNH3ujVvt1-3" value="&lt;font style=&quot;font-size: 11px&quot;&gt;몇 명이 참여할지 &lt;br&gt;선택한다.&lt;/font&gt;" style="ellipse;whiteSpace=wrap;html=1;fillColor=#F2CC8F;strokeColor=#E07A5F;fontColor=#393C56;" vertex="1" parent="WIyWlLk6GJQsqaUBKTNV-1">
          <mxGeometry x="200" y="15" width="120" height="60" as="geometry" />
        </mxCell>
        <mxCell id="hLxBVsBiHpTNH3ujVvt1-11" value="" style="edgeStyle=orthogonalEdgeStyle;orthogonalLoop=1;jettySize=auto;html=1;curved=1;labelBackgroundColor=#F4F1DE;strokeColor=#E07A5F;fontColor=#393C56;" edge="1" parent="WIyWlLk6GJQsqaUBKTNV-1" source="hLxBVsBiHpTNH3ujVvt1-7" target="hLxBVsBiHpTNH3ujVvt1-10">
          <mxGeometry relative="1" as="geometry" />
        </mxCell>
        <mxCell id="hLxBVsBiHpTNH3ujVvt1-7" value="&lt;font style=&quot;font-size: 11px&quot;&gt;참가자 순서를 정한다&lt;/font&gt;" style="ellipse;whiteSpace=wrap;html=1;fillColor=#F2CC8F;strokeColor=#E07A5F;fontColor=#393C56;" vertex="1" parent="WIyWlLk6GJQsqaUBKTNV-1">
          <mxGeometry x="200" y="100" width="120" height="60" as="geometry" />
        </mxCell>
        <mxCell id="hLxBVsBiHpTNH3ujVvt1-13" value="" style="edgeStyle=orthogonalEdgeStyle;orthogonalLoop=1;jettySize=auto;html=1;curved=1;labelBackgroundColor=#F4F1DE;strokeColor=#E07A5F;fontColor=#393C56;" edge="1" parent="WIyWlLk6GJQsqaUBKTNV-1" source="hLxBVsBiHpTNH3ujVvt1-10" target="hLxBVsBiHpTNH3ujVvt1-12">
          <mxGeometry relative="1" as="geometry" />
        </mxCell>
        <mxCell id="hLxBVsBiHpTNH3ujVvt1-10" value="&lt;font style=&quot;font-size: 11px&quot;&gt;첫번째 사람이 &lt;br&gt;제시어를 말한다&lt;/font&gt;" style="ellipse;whiteSpace=wrap;html=1;fillColor=#F2CC8F;strokeColor=#E07A5F;fontColor=#393C56;" vertex="1" parent="WIyWlLk6GJQsqaUBKTNV-1">
          <mxGeometry x="200" y="180" width="120" height="60" as="geometry" />
        </mxCell>
        <mxCell id="hLxBVsBiHpTNH3ujVvt1-15" value="" style="edgeStyle=orthogonalEdgeStyle;orthogonalLoop=1;jettySize=auto;html=1;curved=1;labelBackgroundColor=#F4F1DE;strokeColor=#E07A5F;fontColor=#393C56;" edge="1" parent="WIyWlLk6GJQsqaUBKTNV-1" source="hLxBVsBiHpTNH3ujVvt1-12" target="hLxBVsBiHpTNH3ujVvt1-16">
          <mxGeometry relative="1" as="geometry">
            <mxPoint x="260" y="340.0000000000001" as="targetPoint" />
          </mxGeometry>
        </mxCell>
        <mxCell id="hLxBVsBiHpTNH3ujVvt1-12" value="&lt;span style=&quot;font-size: 11px&quot;&gt;다음 사람이&amp;nbsp;&lt;br&gt;단어를 말한다&lt;br&gt;&lt;/span&gt;" style="ellipse;whiteSpace=wrap;html=1;fillColor=#F2CC8F;strokeColor=#E07A5F;fontColor=#393C56;flipH=1;flipV=1;" vertex="1" parent="WIyWlLk6GJQsqaUBKTNV-1">
          <mxGeometry x="200" y="260" width="120" height="60" as="geometry" />
        </mxCell>
        <mxCell id="hLxBVsBiHpTNH3ujVvt1-63" value="" style="edgeStyle=none;orthogonalLoop=1;jettySize=auto;html=1;fontSize=11;verticalAlign=top;curved=1;labelBackgroundColor=#F4F1DE;strokeColor=#E07A5F;fontColor=#393C56;" edge="1" parent="WIyWlLk6GJQsqaUBKTNV-1" source="hLxBVsBiHpTNH3ujVvt1-58" target="hLxBVsBiHpTNH3ujVvt1-62">
          <mxGeometry relative="1" as="geometry" />
        </mxCell>
        <mxCell id="hLxBVsBiHpTNH3ujVvt1-58" value="틀렸다고 표시한다" style="ellipse;whiteSpace=wrap;html=1;fontSize=11;fillColor=#F2CC8F;strokeColor=#E07A5F;fontColor=#393C56;" vertex="1" parent="WIyWlLk6GJQsqaUBKTNV-1">
          <mxGeometry x="360" y="348" width="130" height="65" as="geometry" />
        </mxCell>
        <mxCell id="hLxBVsBiHpTNH3ujVvt1-62" value="끝" style="ellipse;shape=doubleEllipse;whiteSpace=wrap;html=1;aspect=fixed;fontSize=11;fillColor=#F2CC8F;strokeColor=#E07A5F;fontColor=#393C56;" vertex="1" parent="WIyWlLk6GJQsqaUBKTNV-1">
          <mxGeometry x="530" y="348" width="60" height="60" as="geometry" />
        </mxCell>
        <mxCell id="hLxBVsBiHpTNH3ujVvt1-95" value="예" style="text;html=1;strokeColor=none;fillColor=none;align=center;verticalAlign=middle;whiteSpace=wrap;rounded=0;sketch=0;fontColor=#393C56;fontSize=11;" vertex="1" parent="WIyWlLk6GJQsqaUBKTNV-1">
          <mxGeometry x="90" y="328" width="40" height="20" as="geometry" />
        </mxCell>
        <mxCell id="hLxBVsBiHpTNH3ujVvt1-96" value="" style="edgeStyle=orthogonalEdgeStyle;rounded=0;sketch=0;orthogonalLoop=1;jettySize=auto;html=1;fontColor=#393C56;strokeColor=#E07A5F;fillColor=#F2CC8F;endArrow=none;" edge="1" parent="WIyWlLk6GJQsqaUBKTNV-1" source="hLxBVsBiHpTNH3ujVvt1-16" target="hLxBVsBiHpTNH3ujVvt1-95">
          <mxGeometry relative="1" as="geometry">
            <mxPoint x="189.9999999999999" y="380.51724137931035" as="sourcePoint" />
            <mxPoint x="200.00003963536767" y="290.0344827586207" as="targetPoint" />
            <Array as="points">
              <mxPoint x="110" y="381" />
            </Array>
          </mxGeometry>
        </mxCell>
      </root>
    </mxGraphModel>
  </diagram>
</mxfile>
